REM DIRINDEX 1\2,1\3
REM DIRNAME cjc143,folder01,folder02
TITLE ""
FILE "2000 phrasesTrack38.mp3" MP3
  TRACK 01 AUDIO
    TITLE "2:cjc143_1434"
    INDEX 01 00:00:00
  TRACK 02 AUDIO
    TITLE "0:"
    INDEX 01 00:00:62
  TRACK 03 AUDIO
    TITLE "2:cjc143_1435"
    INDEX 01 00:01:38
  TRACK 04 AUDIO
    TITLE "0:"
    INDEX 01 00:02:49
  TRACK 05 AUDIO
    TITLE "2:cjc143_1436"
    INDEX 01 00:02:61
  TRACK 06 AUDIO
    TITLE "0:"
    INDEX 01 00:04:05
  TRACK 07 AUDIO
    TITLE "2:cjc143_1437"
    INDEX 01 00:04:21
  TRACK 08 AUDIO
    TITLE "0:"
    INDEX 01 00:05:44
  TRACK 09 AUDIO
    TITLE "2:cjc143_1438"
    INDEX 01 00:05:65
  TRACK 10 AUDIO
    TITLE "0:"
    INDEX 01 00:07:13
  TRACK 11 AUDIO
    TITLE "2:cjc143_1439"
    INDEX 01 00:07:21
  TRACK 12 AUDIO
    TITLE "0:"
    INDEX 01 00:08:44
  TRACK 13 AUDIO
    TITLE "2:cjc143_1440"
    INDEX 01 00:08:54
  TRACK 14 AUDIO
    TITLE "0:"
    INDEX 01 00:10:06
  TRACK 15 AUDIO
    TITLE "2:cjc143_1441"
    INDEX 01 00:10:12
  TRACK 16 AUDIO
    TITLE "0:"
    INDEX 01 00:11:72
  TRACK 17 AUDIO
    TITLE "2:cjc143_1442"
    INDEX 01 00:12:03
  TRACK 18 AUDIO
    TITLE "0:"
    INDEX 01 00:13:57
  TRACK 19 AUDIO
    TITLE "2:cjc143_1443"
    INDEX 01 00:13:65
  TRACK 20 AUDIO
    TITLE "0:"
    INDEX 01 00:15:68
  TRACK 21 AUDIO
    TITLE "2:cjc143_1444"
    INDEX 01 00:16:04
  TRACK 22 AUDIO
    TITLE "0:"
    INDEX 01 00:17:25
  TRACK 23 AUDIO
    TITLE "2:cjc143_1445"
    INDEX 01 00:17:35
  TRACK 24 AUDIO
    TITLE "0:"
    INDEX 01 00:18:58
  TRACK 25 AUDIO
    TITLE "2:cjc143_1446"
    INDEX 01 00:18:64
  TRACK 26 AUDIO
    TITLE "0:"
    INDEX 01 00:20:26
  TRACK 27 AUDIO
    TITLE "2:cjc143_1447"
    INDEX 01 00:20:32
  TRACK 28 AUDIO
    TITLE "0:"
    INDEX 01 00:22:03
  TRACK 29 AUDIO
    TITLE "2:cjc143_1448"
    INDEX 01 00:22:11
  TRACK 30 AUDIO
    TITLE "0:"
    INDEX 01 00:23:59
  TRACK 31 AUDIO
    TITLE "2:cjc143_1449"
    INDEX 01 00:24:29
  TRACK 32 AUDIO
    TITLE "0:"
    INDEX 01 00:25:46
  TRACK 33 AUDIO
    TITLE "2:cjc143_1450"
    INDEX 01 00:25:52
  TRACK 34 AUDIO
    TITLE "0:"
    INDEX 01 00:26:71
  TRACK 35 AUDIO
    TITLE "2:cjc143_1451"
    INDEX 01 00:27:02
  TRACK 36 AUDIO
    TITLE "0:"
    INDEX 01 00:28:25
  TRACK 37 AUDIO
    TITLE "2:cjc143_1452"
    INDEX 01 00:28:31
  TRACK 38 AUDIO
    TITLE "0:"
    INDEX 01 00:30:10
  TRACK 39 AUDIO
    TITLE "2:cjc143_1453"
    INDEX 01 00:30:16
  TRACK 40 AUDIO
    TITLE "0:"
    INDEX 01 00:31:41
  TRACK 41 AUDIO
    TITLE "2:cjc143_1454"
    INDEX 01 00:31:53
  TRACK 42 AUDIO
    TITLE "0:"
    INDEX 01 00:33:07
  TRACK 43 AUDIO
    TITLE "2:cjc143_1455"
    INDEX 01 00:33:15
  TRACK 44 AUDIO
    TITLE "0:"
    INDEX 01 00:34:49
  TRACK 45 AUDIO
    TITLE "2:cjc143_1456"
    INDEX 01 00:34:55
  TRACK 46 AUDIO
    TITLE "0:"
    INDEX 01 00:36:13
  TRACK 47 AUDIO
    TITLE "2:cjc143_1457"
    INDEX 01 00:36:21
  TRACK 48 AUDIO
    TITLE "0:"
    INDEX 01 00:37:54
  TRACK 49 AUDIO
    TITLE "2:cjc143_1458"
    INDEX 01 00:37:67
  TRACK 50 AUDIO
    TITLE "0:"
    INDEX 01 00:39:35
  TRACK 51 AUDIO
    TITLE "2:cjc143_1459"
    INDEX 01 00:39:43
  TRACK 52 AUDIO
    TITLE "0:"
    INDEX 01 00:40:68
  TRACK 53 AUDIO
    TITLE "2:cjc143_1460"
    INDEX 01 00:40:73
  TRACK 54 AUDIO
    TITLE "0:"
    INDEX 01 00:42:14
  TRACK 55 AUDIO
    TITLE "2:cjc143_1461"
    INDEX 01 00:42:27
  TRACK 56 AUDIO
    TITLE "0:"
    INDEX 01 00:44:07
  TRACK 57 AUDIO
    TITLE "2:cjc143_1462"
    INDEX 01 00:44:16
  TRACK 58 AUDIO
    TITLE "0:"
    INDEX 01 00:45:49
  TRACK 59 AUDIO
    TITLE "2:cjc143_1463"
    INDEX 01 00:45:55
  TRACK 60 AUDIO
    TITLE "0:"
    INDEX 01 00:47:07
  TRACK 61 AUDIO
    TITLE "2:cjc143_1464"
    INDEX 01 00:47:15
  TRACK 62 AUDIO
    TITLE "0:"
    INDEX 01 00:48:42
  TRACK 63 AUDIO
    TITLE "2:cjc143_1465"
    INDEX 01 00:48:53
  TRACK 64 AUDIO
    TITLE "0:"
    INDEX 01 00:50:21
  TRACK 65 AUDIO
    TITLE "2:cjc143_1466"
    INDEX 01 00:50:27
  TRACK 66 AUDIO
    TITLE "0:"
    INDEX 01 00:51:46
  TRACK 67 AUDIO
    TITLE "2:cjc143_1467"
    INDEX 01 00:51:52
  TRACK 68 AUDIO
    TITLE "0:"
    INDEX 01 00:53:00
  TRACK 69 AUDIO
    TITLE "2:cjc143_1468"
    INDEX 01 00:53:43
  TRACK 70 AUDIO
    TITLE "0:"
    INDEX 01 00:55:08
  TRACK 71 AUDIO
    TITLE "2:cjc143_1469"
    INDEX 01 00:55:14
  TRACK 72 AUDIO
    TITLE "0:"
    INDEX 01 00:56:61
  TRACK 73 AUDIO
    TITLE "2:cjc143_1470"
    INDEX 01 00:56:65
  TRACK 74 AUDIO
    TITLE "0:"
    INDEX 01 00:58:20
  TRACK 75 AUDIO
    TITLE "2:cjc143_1471"
    INDEX 01 00:58:24
  TRACK 76 AUDIO
    TITLE "0:"
    INDEX 01 00:59:43
  TRACK 77 AUDIO
    TITLE "2:cjc143_1472"
    INDEX 01 00:59:49
  TRACK 78 AUDIO
    TITLE "0:"
    INDEX 01 01:01:09
  TRACK 79 AUDIO
    TITLE "2:cjc143_1473"
    INDEX 01 01:01:15
  TRACK 80 AUDIO
    TITLE "0:"
    INDEX 01 01:02:55
  TRACK 81 AUDIO
    TITLE "2:cjc143_1474"
    INDEX 01 01:02:61
  TRACK 82 AUDIO
    TITLE "0:"
    INDEX 01 01:04:19
  TRACK 83 AUDIO
    TITLE "2:cjc143_1475"
    INDEX 01 01:04:27
  TRACK 84 AUDIO
    TITLE "0:"
    INDEX 01 01:05:56
  TRACK 85 AUDIO
    TITLE "2:cjc143_1476"
    INDEX 01 01:06:02
  TRACK 86 AUDIO
    TITLE "0:"
    INDEX 01 01:07:55
  TRACK 87 AUDIO
    TITLE "2:cjc143_1477"
    INDEX 01 01:07:59
  TRACK 88 AUDIO
    TITLE "0:"
    INDEX 01 01:09:20
